<svg xmlns="http://www.w3.org/2000/svg" viewBox="0 0 512 512" fill="none"><path fill="#EA6676" d="M159 333.4a2304.1 2304.1 0 01-50.1-2.9 63.3 63.3 0 01-16.8-3c-7-2.6-11.1-6.8-11.1-13.6 0 3.2 20.6 5 28.6 5.5h1.4c163.3 11.2 299.8 3.1 321-16.7 0 7.2-6.1 12.9-16.7 17.5a149.9 149.9 0 01-22.3 6.7 463.7 463.7 0 01-55.7 7l-11.2.7-11.1.5-11.1.4a709.8 709.8 0 01-22.3.5h-11.2l-11.1.1H248L237 336l-11.1-.2-11.2-.3c-3.8 0-7.5-.2-11.1-.3l-11.2-.4-11.1-.4-11.2-.4-11.1-.6z"/><path fill="#FFD8BE" d="M115.6 289.1c39.9 3.8 81.5 6.1 121.4 8.9 80.8 5.6 155 7.4 195-12v16.7c-21.2 19.8-157.7 27.9-321 16.8l-1.4-.1c-8-.5-28.6-2.3-28.6-5.5V286l34.6 3.1z"/><path fill="#EA6676" d="M106.3 195.2l-2.8 11.8c-4.1 11.1-18.8 16.9-18.8 16.9 1.7-15.2 4.1-28.5 7.4-32.6 2.9-3.5 7.8-.7 14.2 4z"/><path fill="#F4A26A" d="M432 286c-40 19.4-114.2 19.3-195 13.7 0 0 36.2-67 56.4-70.4l20.5 12.1v-.1c17.9 5 29 5.7 29 5.7 11.1 3 11.1-5.6 11.1-5.6l.7-3c42.5 12.8 77.3 22.5 77.3 42v5.6zM106.3 195.2c10.6 7.7 25.3 20.6 41.6 18.4 17.2-2.4 43.5-21.8 62.4-31.8l9.7 4.7c3.8 3.3 2.3 5.7 6.1 8.7l-5 1.7c-27 10.2-64 96.1-64 96.1L81 286v-5.6s.8-30.8 3.7-56.5c0 0 14.5-10.3 18.6-21.5l3-7.2z"/><path fill="#EA6676" d="M115.5 289.2c64.6 0 67.9-89 110.6-94h.1c33.9 26.8 50.4 22.3 96.2 48.4-41.6-13.7-49 56.2-85.4 56.2-36.5 0-81.6-6.9-121.5-10.6z"/><path fill="#FFD8BE" d="M231.4 177.7c30.7 31.9 80.8 47.8 123.3 60.7l-.7 3.6s-.9 9.5-12 6.5c0 0-10.2-2.2-28-7.2a257 257 0 01-99.3-55.6l-4.4-3.9c9.8-5.2 17.6-7.7 21.1-4.1z"/></svg>
