<svg xmlns="http://www.w3.org/2000/svg" width="82" height="24" fill="none">
  <path fill="#4DB45E" fill-rule="evenodd" d="M22.1.93c-.01 0-3.2 0-4.06 2.9-.78 2.68-2.98 10.05-3.04 10.25h-.6s-2.26-7.53-3.05-10.25C10.5.9 7.3.93 7.3.93H0v22.15h7.3V9.92h.6l4.26 13.16h5.07l4.26-13.15h.6v13.15h7.3V.93h-7.3zm26.66 0s-2.14.18-3.15 2.32l-5.17 10.83h-.6V.93h-7.3v22.15h6.89s2.24-.2 3.24-2.32l5.07-10.84h.6v13.16h7.3V.93h-6.89zm10.13 10.05v12.1h7.3V16h7.9c3.45 0 6.37-2.1 7.45-5.03H58.9z" clip-rule="evenodd"/>
  <path fill="#088CCB" fill-rule="evenodd" d="M74.1.93H57.86c.8 4.21 4.12 7.6 8.41 8.7.97.25 2 .39 3.05.39h12.5c.12-.51.17-1.03.17-1.55C82 4.3 78.46.92 74.1.92z" clip-rule="evenodd"/>
</svg>
