<svg xmlns="http://www.w3.org/2000/svg" width="72" height="24" fill="none">
  <path fill="#22579A" d="M28.83 1.64L25.17 22.4h5.85l3.66-20.77h-5.85zm-8.57.02l-5.73 14.17-.61-2.14c-1.13-2.58-4.34-6.28-8.1-8.62l5.23 17.33h6.2l9.21-20.75h-6.2z"/>
  <path fill="#EEA841" d="M11.7 3.15c-.34-1.27-1.33-1.65-2.55-1.69H.07L0 1.87c7.06 1.66 11.73 5.65 13.67 10.46L11.7 3.15z"/>
  <path fill="#22579A" d="M46.54 5.62c1.5-.04 3 .23 4.38.8l.53.23.8-4.5A15.59 15.59 0 0047 1.28c-5.78 0-9.86 2.81-9.89 6.85-.04 2.99 2.9 4.65 5.13 5.65 2.28 1.02 3.04 1.67 3.03 2.58-.02 1.39-1.82 2.03-3.5 2.03-2.34 0-3.59-.32-5.5-1.1l-.76-.32-.83 4.65a19.1 19.1 0 006.52 1.1c6.15 0 10.15-2.78 10.2-7.1.02-2.36-1.54-4.16-4.92-5.64-2.05-.96-3.3-1.6-3.29-2.58 0-.86 1.06-1.78 3.35-1.78zm20.72-3.96h-4.52c-1.4 0-2.44.37-3.06 1.72l-8.7 19.05h6.15l1.23-3.13 7.5.01.71 3.12H72L67.26 1.66zm-7.21 13.4l2.33-5.82.78-1.98.4 1.8 1.35 6h-4.86z"/>
</svg>
